<svg id="visual" viewBox="0 0 900 600" width="900" height="600" xmlns="http://www.w3.org/2000/svg" xmlns:xlink="http://www.w3.org/1999/xlink" version="1.1"><path d="M0 295L82 295L82 247L164 247L164 127L245 127L245 253L327 253L327 169L409 169L409 169L491 169L491 115L573 115L573 109L655 109L655 133L736 133L736 127L818 127L818 175L900 175L900 199L900 0L900 0L818 0L818 0L736 0L736 0L655 0L655 0L573 0L573 0L491 0L491 0L409 0L409 0L327 0L327 0L245 0L245 0L164 0L164 0L82 0L82 0L0 0Z" fill="#fa7268"></path><path d="M0 391L82 391L82 325L164 325L164 217L245 217L245 301L327 301L327 283L409 283L409 253L491 253L491 223L573 223L573 253L655 253L655 253L736 253L736 229L818 229L818 241L900 241L900 355L900 197L900 173L818 173L818 125L736 125L736 131L655 131L655 107L573 107L573 113L491 113L491 167L409 167L409 167L327 167L327 251L245 251L245 125L164 125L164 245L82 245L82 293L0 293Z" fill="#ea5e66"></path><path d="M0 433L82 433L82 427L164 427L164 319L245 319L245 373L327 373L327 319L409 319L409 349L491 349L491 307L573 307L573 325L655 325L655 319L736 319L736 319L818 319L818 325L900 325L900 445L900 353L900 239L818 239L818 227L736 227L736 251L655 251L655 251L573 251L573 221L491 221L491 251L409 251L409 281L327 281L327 299L245 299L245 215L164 215L164 323L82 323L82 389L0 389Z" fill="#d84a64"></path><path d="M0 505L82 505L82 463L164 463L164 403L245 403L245 487L327 487L327 403L409 403L409 415L491 415L491 367L573 367L573 391L655 391L655 445L736 445L736 373L818 373L818 385L900 385L900 487L900 443L900 323L818 323L818 317L736 317L736 317L655 317L655 323L573 323L573 305L491 305L491 347L409 347L409 317L327 317L327 371L245 371L245 317L164 317L164 425L82 425L82 431L0 431Z" fill="#c53762"></path><path d="M0 601L82 601L82 601L164 601L164 601L245 601L245 601L327 601L327 601L409 601L409 601L491 601L491 601L573 601L573 601L655 601L655 601L736 601L736 601L818 601L818 601L900 601L900 601L900 485L900 383L818 383L818 371L736 371L736 443L655 443L655 389L573 389L573 365L491 365L491 413L409 413L409 401L327 401L327 485L245 485L245 401L164 401L164 461L82 461L82 503L0 503Z" fill="#b0235f"></path></svg>